<svg version="1.2" xmlns="http://www.w3.org/2000/svg" viewBox="0 0 360 368" width="352" height="360">
	<style>
		.s0 { fill: #0760e7 } 
		.s1 { fill: #90c740 } 
	</style>
	<g>
		<path class="s0" d="m-567.5 364.3c-4.2-1.5-4.1 3.8-4.1-180.5 0-159.3 0.2-176.9 1.6-178.4 1.4-1.4 9.9-1.6 78.1-1.6 58.1 0 76.7 0.3 77.7 1.2 1.8 1.8 1.7 32.9-0.1 34.5-1 0.8-18.9 1.2-60.7 1.3l-59.2 0.3v142.7 142.7l59.2 0.3c41.7 0.1 59.7 0.5 60.7 1.3 1 0.9 1.3 5 1.3 17.3 0 14.2-0.2 16.3-1.8 17.7-1.7 1.6-8.5 1.7-76.5 1.6-41 0-75.3-0.3-76.1-0.6z"/>
		<path class="s0" d="m-374.9 363.4c-2.1-1.5-2.3-2.1-2.3-17.8 0-15 0.1-16.4 1.9-17.4 1.3-0.6 22.3-1 60.9-1h58.9v-143.3-143.3h-59.1c-56.1 0-59.3-0.1-60.9-1.8-1.4-1.6-1.7-4.4-1.7-17.2 0-10.5 0.4-15.8 1.2-16.6 0.9-0.9 19.7-1.2 78.3-1.2 75.1 0 77.1 0 78.1 1.9 0.7 1.3 1 58.7 1 178.4 0 158-0.2 176.6-1.6 178.7l-1.5 2.3h-75.4c-66.6 0-75.7-0.2-77.8-1.6z"/>
		<path class="s0" d="m-496.1 286.5c-1.6-1.7-1.7-10.3-1.7-102.7 0-96.3 0.1-100.9 1.8-102.4 1.7-1.5 6-1.7 40.9-1.7 34.1 0 39.2 0.2 40.5 1.6 1.3 1.3 1.6 4.4 1.6 17.2 0 13.6-0.2 15.9-1.8 17.3-1.4 1.3-5.2 1.6-22.3 1.9-16 0.2-21 0.6-22.3 1.7-1.6 1.3-1.7 6-1.6 61.9 0.1 33.3 0.4 62.4 0.7 64.9l0.5 4.3h21.8c19.7 0 21.8 0.2 23.3 1.8 1.4 1.6 1.7 4.4 1.7 17 0 8.4-0.5 16-1 17.1-1 1.8-2.6 1.9-40.8 1.9-37.1 0-39.8-0.1-41.3-1.8z"/>
		<path class="s0" d="m-375.5 286.7c-2.5-2.4-2.5-32.2 0-34.3 1.1-0.9 7.7-1.4 24-1.7l22.4-0.5-0.2-66.1-0.3-66.1-21.9-0.3c-18.6-0.2-22.3-0.5-23.8-1.9-1.6-1.4-1.8-3.5-1.8-17.3 0-12.8 0.3-15.9 1.6-17.2 1.3-1.4 6.5-1.6 40.8-1.6 34.3 0 39.5 0.2 40.8 1.6 1.4 1.4 1.6 12.1 1.6 102.3 0 67.5-0.3 101.5-1 102.8-1 1.8-2.6 1.9-40.9 1.9-34.8 0-40-0.2-41.3-1.6z"/>
		<path class="s0" d="m-421.5 210.9c-2.5-2.4-2.5-51.7 0-54 1.3-1.4 5.2-1.6 26.9-1.6 18.3 0 25.6 0.3 26.5 1.2 1.7 1.7 1.7 53.1 0 54.8-0.9 0.9-8.2 1.2-26.5 1.2-21.7 0-25.6-0.2-26.9-1.6z"/>
	</g>
	<g>
		<path class="s1" d="m36.1 363.9c-12.2-1.7-22.2-9.4-27.7-21.2l-3.3-6.9-0.3-148.9c-0.2-97.4 0.1-150.5 0.8-153.7 2.5-11.7 10-21.4 20.3-26.2l5.8-2.8 60.2-0.3c66.3-0.3 63.5-0.5 68.7 6.2 5.8 7.6 5.2 18-1.4 25.5l-3.9 4.4-56.6 0.5-56.7 0.5v142.7 142.7l55.9 0.5 55.9 0.5 3.6 2.8c4.8 3.7 7 8.5 7 15.7 0 6.7-1.4 9.8-6.7 14.8l-3.7 3.6-56 0.1c-30.8 0.1-58.6-0.2-61.8-0.7z"/>
		<path class="s1" d="m211.6 364.1c-10.2-2.6-16.5-15.1-12.6-25.4 1.1-3.2 5.4-8 8.6-9.8 1.4-0.9 18-1.3 57.3-1.7l55.3-0.5v-142.7-142.7l-55.3-0.5c-40.6-0.4-55.9-0.8-57.4-1.7-3.8-2.1-8.5-8.3-9.2-12.1-1.7-9.4 2.6-18.5 10-21.4 3.9-1.5 10.7-1.6 63.7-1.4l59.3 0.3 5.7 2.9c7.1 3.4 13.5 10.1 17.1 17.9l2.8 5.8 0.3 150.3c0.3 166.1 0.6 156-6.1 166.7-3.6 5.6-12.1 13.1-17.2 15.1-2.9 1.1-15 1.4-61.4 1.6-31.8 0.1-59.2-0.2-61-0.6z"/>
		<path class="s1" d="m104.1 286.4c-8.9-3.3-14.1-7.3-19-14.7-7.1-10.5-6.9-8.5-6.9-88.2 0-79.4-0.2-76.8 6.5-87.1 4.7-7 11.6-12.1 20-14.7 5.6-1.8 9.3-2 29.8-2h23.4l2.1 2.9c2.1 2.6 2.3 3.6 1.8 16.8-0.5 19.4 1.2 18.2-25.1 18.2-15.9 0-20.8 0.3-20.9 1.3-0.1 1.6-0.1 122.8 0 127.9l0.1 3.8h21.6c21 0 24.8 0.5 26.7 3.5 0.4 0.6 0.8 7.6 0.8 15.5 0 20.7 2.8 18.9-29.5 18.9-23-0.1-26.9-0.3-31.6-1.9z"/>
		<path class="s1" d="m203.8 286.5c-2.6-2.8-2.6-32 0-34.1 1.2-1 6.9-1.5 22.2-1.9l20.6-0.5v-66-66l-22.6-0.5c-15.9-0.4-23-0.9-24.1-1.7-1.1-1-1.7-4.5-2.1-13.3-0.6-12.9 0.2-20.5 2.5-21.9 0.8-0.5 13.6-0.8 28.5-0.7l27.2 0.3 6.7 3.3c8.1 4 14.3 10.4 18.1 18.5l2.8 5.8v76.2 76.2l-2.8 5.9c-1.5 3.4-5.5 8.8-9 12.5-9.1 9.4-10.5 9.7-41.2 9.7-22.9 0-25.1-0.2-26.6-1.8z"/>
		<path class="s1" d="m154.5 210.9c-1.4-1.3-1.6-5.3-1.6-27.4 0-18.7 0.3-26.1 1.2-27 1.7-1.7 52.1-1.7 53.8 0 1.7 1.7 1.7 53.1 0 54.8-0.9 0.9-8.2 1.2-26.5 1.2-21.7 0-25.6-0.2-26.9-1.6z"/>
	</g>
</svg>